# Blender 4.1.1
# www.blender.org
mtllib plane.mtl
o corpo
v -6.900000 3.968752 -1.981239
v -6.900000 -0.048687 -2.012284
v -6.900000 3.968752 1.924114
v -6.900000 -0.048687 1.980500
v 4.208390 -4.995974 -4.980174
v 4.182270 5.013469 4.990867
v 4.208389 -4.995974 4.992793
v 4.182271 4.982174 -4.995560
v 4.195330 -0.029629 -4.979643
v 4.208390 -4.982268 -0.000543
v 4.195330 -0.029629 4.964418
v 4.182270 4.983316 -0.000976
vn -0.0915 0.9958 -0.0022
vn -0.2621 0.0035 0.9650
vn -1.0000 -0.0000 -0.0000
vn -0.2597 0.0006 -0.9657
vn -0.4062 -0.9138 -0.0000
vt 0.633540 0.500000
vt 0.875000 0.500000
vt 0.875000 0.750000
vt 0.633540 0.750000
vt 0.633540 0.625000
vt 0.375000 0.758540
vt 0.500000 0.758540
vt 0.625000 0.758540
vt 0.625000 1.000000
vt 0.375000 1.000000
vt 0.375000 0.000000
vt 0.625000 0.000000
vt 0.625000 0.250000
vt 0.375000 0.250000
vt 0.625000 0.491460
vt 0.500000 0.491460
vt 0.375000 0.491460
vt 0.125000 0.500000
vt 0.366460 0.500000
vt 0.366460 0.625000
vt 0.366460 0.750000
vt 0.125000 0.750000
s 0
usemtl Materiale.008
f 8/1/1 1/2/1 3/3/1 6/4/1 12/5/1
f 7/6/2 11/7/2 6/8/2 3/9/2 4/10/2
f 4/11/3 3/12/3 1/13/3 2/14/3
f 2/14/4 1/13/4 8/15/4 9/16/4 5/17/4
f 2/18/5 5/19/5 10/20/5 7/21/5 4/22/5
o tail
v -7.936774 2.000000 0.500000
v -7.936774 6.000000 0.144653
v -7.936774 2.000000 -0.500000
v -7.936774 6.000000 -0.144653
v -4.936774 2.000000 0.500000
v -4.936774 6.000000 0.144653
v -4.936774 2.000000 -0.500000
v -4.936774 6.000000 -0.144653
vn -1.0000 -0.0000 -0.0000
vn -0.0000 0.0885 -0.9961
vn 1.0000 -0.0000 -0.0000
vn -0.0000 0.0885 0.9961
vn -0.0000 -1.0000 -0.0000
vn -0.0000 1.0000 -0.0000
vt 0.375000 0.000000
vt 0.625000 0.000000
vt 0.625000 0.250000
vt 0.375000 0.250000
vt 0.625000 0.500000
vt 0.375000 0.500000
vt 0.625000 0.750000
vt 0.375000 0.750000
vt 0.625000 1.000000
vt 0.375000 1.000000
vt 0.125000 0.500000
vt 0.125000 0.750000
vt 0.875000 0.500000
vt 0.875000 0.750000
s 0
usemtl Materiale.008
f 13/23/6 14/24/6 16/25/6 15/26/6
f 15/26/7 16/25/7 20/27/7 19/28/7
f 19/28/8 20/27/8 18/29/8 17/30/8
f 17/30/9 18/29/9 14/31/9 13/32/9
f 15/33/10 19/28/10 17/30/10 13/34/10
f 20/27/11 16/35/11 14/36/11 18/29/11
o ali
v -4.000000 0.639095 -14.146502
v -4.000000 0.084832 -14.146502
v -4.000000 0.639093 14.146502
v -4.000000 0.084830 14.146502
v 4.000000 0.799999 15.000000
v 4.000000 -0.800001 15.000000
v 4.000000 0.800001 -10.838463
v 4.090257 0.800001 -15.000000
v 4.090257 -0.799999 -15.000000
v 4.000000 -0.799999 -10.838463
vn -1.0000 -0.0000 -0.0000
vn -0.1061 -0.0000 0.9944
vn -0.1049 -0.0000 -0.9945
vn -0.1099 -0.9939 -0.0002
vn -0.0201 0.9998 -0.0000
vn 1.0000 -0.0000 0.0030
vt 0.375000 0.000000
vt 0.625000 0.000000
vt 0.625000 0.250000
vt 0.375000 0.250000
vt 0.625000 0.500000
vt 0.375000 0.500000
vt 0.375000 0.784679
vt 0.625000 0.784679
vt 0.625000 1.000000
vt 0.375000 1.000000
vt 0.875000 0.500000
vt 0.875000 0.750000
vt 0.659680 0.750000
vt 0.625000 0.715321
vt 0.125000 0.500000
vt 0.375000 0.715321
vt 0.340321 0.750000
vt 0.125000 0.750000
s 0
usemtl Materiale.008
f 21/37/12 22/38/12 24/39/12 23/40/12
f 23/40/13 24/39/13 26/41/13 25/42/13
f 28/43/14 29/44/14 22/45/14 21/46/14
f 26/41/15 24/47/15 22/48/15 29/49/15 30/50/15
f 23/51/16 25/42/16 27/52/16 28/53/16 21/54/16
f 25/42/17 26/41/17 30/50/17 29/44/17 28/53/17 27/52/17
o Cubo
v -6.851060 4.786807 -2.163094
v -6.851060 4.986722 -2.163094
v -6.851060 4.786808 1.951359
v -6.851060 4.986722 1.951359
v -8.851060 4.786562 -2.105867
v -8.851060 5.282970 -2.105867
v -8.851060 4.786562 1.894133
v -8.851060 5.282970 1.894133
vn 1.0000 -0.0000 -0.0000
vn -0.0286 -0.0000 0.9996
vn -1.0000 -0.0000 -0.0000
vn -0.0286 -0.0000 -0.9996
vn 0.0001 -1.0000 -0.0000
vn 0.1465 0.9892 -0.0000
vt 0.375000 0.000000
vt 0.625000 0.000000
vt 0.625000 0.250000
vt 0.375000 0.250000
vt 0.625000 0.500000
vt 0.375000 0.500000
vt 0.625000 0.750000
vt 0.375000 0.750000
vt 0.625000 1.000000
vt 0.375000 1.000000
vt 0.125000 0.500000
vt 0.125000 0.750000
vt 0.875000 0.500000
vt 0.875000 0.750000
s 0
f 31/55/18 32/56/18 34/57/18 33/58/18
f 33/58/19 34/57/19 38/59/19 37/60/19
f 37/60/20 38/59/20 36/61/20 35/62/20
f 35/62/21 36/61/21 32/63/21 31/64/21
f 33/65/22 37/60/22 35/62/22 31/66/22
f 38/59/23 34/67/23 32/68/23 36/61/23
o ali.001
v -4.000000 0.639094 -14.146502
v -4.000000 0.084831 -14.146502
v -4.000000 0.639094 14.146502
v -4.000000 0.084831 14.146502
v 4.000000 0.800000 15.000000
v 4.000000 -0.800000 15.000000
v 4.000000 0.800000 -10.838463
v 4.090257 0.800000 -15.000000
v 4.090257 -0.800000 -15.000000
v 4.000000 -0.800000 -10.838463
vn -1.0000 -0.0000 -0.0000
vn -0.1061 -0.0000 0.9944
vn -0.1049 -0.0000 -0.9945
vn -0.1099 -0.9939 -0.0002
vn -0.0201 0.9998 -0.0000
vt 0.375000 0.000000
vt 0.625000 0.000000
vt 0.625000 0.250000
vt 0.375000 0.250000
vt 0.625000 0.500000
vt 0.375000 0.500000
vt 0.375000 0.784679
vt 0.625000 0.784679
vt 0.625000 1.000000
vt 0.375000 1.000000
vt 0.875000 0.500000
vt 0.875000 0.750000
vt 0.659680 0.750000
vt 0.625000 0.715321
vt 0.125000 0.500000
vt 0.375000 0.715321
vt 0.340321 0.750000
vt 0.125000 0.750000
s 0
usemtl Materiale.008
f 39/69/24 40/70/24 42/71/24 41/72/24
f 41/72/25 42/71/25 44/73/25 43/74/25
f 46/75/26 47/76/26 40/77/26 39/78/26
f 44/73/27 42/79/27 40/80/27 47/81/27 48/82/27
f 41/83/28 43/74/28 45/84/28 46/85/28 39/86/28
o Cubo.001
v 4.193493 -5.000000 5.000000
v 4.193493 5.000000 5.000000
v 4.193493 -5.000000 -5.000000
v 4.193493 5.000000 -5.000000
v 8.193493 -3.723553 3.723555
v 5.736586 -5.000000 5.000000
v 5.736586 5.000000 5.000000
v 8.193493 3.723557 3.723555
v 8.193493 -3.723553 -3.723555
v 5.736586 -5.000000 -5.000000
v 8.193493 3.723557 -3.723555
v 5.736586 5.000000 -5.000000
vn -1.0000 -0.0000 -0.0000
vn -0.0000 -0.0000 1.0000
vn -0.0000 1.0000 -0.0000
vn 1.0000 -0.0000 -0.0000
vn -0.0000 -0.0000 -1.0000
vn 0.4610 -0.0000 -0.8874
vn 0.4610 -0.8874 -0.0000
vn 0.4610 0.8874 -0.0000
vn 0.4610 -0.0000 0.8874
vn -0.0000 -1.0000 -0.0000
vt 0.375000 0.000000
vt 0.625000 0.000000
vt 0.625000 0.250000
vt 0.375000 0.250000
vt 0.375000 0.855406
vt 0.625000 0.855406
vt 0.625000 1.000000
vt 0.375000 1.000000
vt 0.730406 0.500000
vt 0.875000 0.500000
vt 0.875000 0.750000
vt 0.730406 0.750000
vt 0.480406 0.605406
vt 0.519594 0.605406
vt 0.519594 0.644594
vt 0.480406 0.644594
vt 0.625000 0.394594
vt 0.375000 0.394594
vt 0.269594 0.750000
vt 0.269594 0.500000
vt 0.125000 0.500000
vt 0.125000 0.750000
s 0
usemtl bianco.001
f 49/87/29 50/88/29 52/89/29 51/90/29
f 54/91/30 55/92/30 50/93/30 49/94/30
f 60/95/31 52/96/31 50/97/31 55/98/31
f 57/99/32 59/100/32 56/101/32 53/102/32
f 51/90/33 52/89/33 60/103/33 58/104/33
f 59/100/34 57/99/34 58/104/34 60/103/34
f 54/105/35 58/106/35 57/99/35 53/102/35
f 60/95/36 55/98/36 56/101/36 59/100/36
f 55/92/37 54/91/37 53/102/37 56/101/37
f 51/107/38 58/106/38 54/105/38 49/108/38
o Cilindro.002
v 8.010514 -0.000000 -0.387786
v 8.010514 0.292302 -0.274206
v 8.010514 0.413377 -0.000000
v 8.010514 -0.413377 0.000000
v 8.010514 -0.292302 -0.274206
v 9.130515 -0.000000 -0.606148
v 9.082693 -0.000000 -0.682580
v 9.130515 0.450060 -0.430960
v 9.082697 0.479553 -0.495921
v 9.130515 0.619165 -0.047305
v 9.082698 0.678190 -0.045285
v 8.058846 0.245225 0.414249
v 8.010514 0.321155 0.288917
v 9.130515 0.450060 0.336350
v 9.082132 0.421298 0.432460
v 9.082508 0.516364 0.326242
v 8.010514 0.000000 0.482269
v 8.058952 0.055096 0.524661
v 8.058952 -0.055096 0.524661
v 9.130515 0.000000 0.511538
v 9.082078 -0.057653 0.576727
v 9.082078 0.057653 0.576727
v 8.058846 -0.245224 0.414249
v 8.010514 -0.321155 0.288917
v 9.130515 -0.450060 0.336350
v 9.082508 -0.516364 0.326242
v 9.082132 -0.421298 0.432460
v 9.130515 -0.619165 -0.047305
v 9.082698 -0.678190 -0.045285
v 9.130515 -0.450060 -0.430960
v 9.082697 -0.479553 -0.495921
vn -0.2481 -0.3512 -0.9028
vn -0.1951 0.9154 0.3521
vn -1.0000 -0.0000 -0.0000
vn -0.0675 -0.4169 0.9065
vn -0.1951 -0.9154 0.3521
vn -0.2363 -0.8891 -0.3921
vn -0.2481 0.3512 -0.9028
vn -0.2363 0.8891 -0.3921
vn -0.0675 0.4169 0.9065
vn 0.6632 0.5565 0.5004
vn -0.6586 -0.0000 0.7525
vn 0.8027 -0.0000 0.5964
vn 0.6632 -0.5565 0.5004
vn 0.8303 0.2022 -0.5194
vn 0.7437 0.6118 -0.2696
vn 0.7585 0.5968 0.2617
vn -0.1542 0.7793 0.6074
vn -0.8098 0.2995 0.5044
vn 0.8566 0.1885 0.4804
vn -0.0508 -0.0000 0.9987
vn -0.8098 -0.2995 0.5044
vn 0.8566 -0.1885 0.4804
vn -0.1542 -0.7793 0.6074
vn 0.7585 -0.5968 0.2617
vn 0.7437 -0.6118 -0.2696
vn 0.8303 -0.2022 -0.5194
vn 1.0000 -0.0000 -0.0000
vt 0.125000 0.500000
vt 0.000000 0.500000
vt 0.000000 0.978651
vt 0.125000 0.978653
vt 0.750000 0.500000
vt 0.654789 0.500000
vt 0.648243 0.978600
vt 0.750000 0.978653
vt 0.750000 0.490000
vt 0.580294 0.419706
vt 0.510000 0.250000
vt 0.563543 0.120737
vt 0.750000 0.043112
vt 0.936457 0.120737
vt 0.990000 0.250000
vt 0.919706 0.419706
vt 0.477410 0.521611
vt 0.397632 0.521591
vt 0.390422 0.978394
vt 0.484618 0.978385
vt 0.345211 0.500000
vt 0.250000 0.500000
vt 0.250000 0.978653
vt 0.351757 0.978600
vt 1.000000 0.500000
vt 0.875000 0.500000
vt 0.875000 0.978653
vt 1.000000 0.978651
vt 0.602369 0.521591
vt 0.522590 0.521611
vt 0.515382 0.978385
vt 0.609578 0.978394
vt 0.406543 0.107998
vt 0.429605 0.111740
vt 0.396538 0.072425
vt 0.718290 0.023135
vt 0.781710 0.023135
vt 0.250000 0.043156
vt 0.270053 0.019028
vt 0.229947 0.019028
vt 0.093457 0.107998
vt 0.103462 0.072425
vt 0.070395 0.111740
vt 0.417591 0.420582
vt 0.406543 0.392002
vt 0.250000 0.456844
vt 0.250791 0.489673
vt 0.489029 0.252343
vt 0.465362 0.250000
vt 0.419940 0.419139
vt 0.431825 0.109553
vt 0.488590 0.246595
vt 0.891451 0.068591
vt 0.270170 0.018355
vt 0.396819 0.070814
vt 0.608549 0.068591
vt 0.103181 0.070814
vt 0.229830 0.018355
vt 0.011410 0.246595
vt 0.034638 0.250000
vt 0.068175 0.109553
vt 0.080060 0.419139
vt 0.093457 0.392002
vt 0.010971 0.252343
vt 0.249209 0.489673
vt 0.082409 0.420582
s 0
usemtl brown.001
f 65/109/39 61/110/39 67/111/39 91/112/39
f 63/113/40 73/114/40 76/115/40 71/116/40
f 61/117/41 65/118/41 64/119/41 84/120/41 77/121/41 73/122/41 63/123/41 62/124/41
f 79/125/42 83/126/42 87/127/42 81/128/42
f 84/129/43 64/130/43 89/131/43 86/132/43
f 64/130/44 65/109/44 91/112/44 89/131/44
f 61/133/45 62/134/45 69/135/45 67/136/45
f 62/134/46 63/113/46 71/116/46 69/135/46
f 72/137/47 78/138/47 82/139/47 75/140/47
f 74/141/48 76/142/48 75/143/48
f 77/121/49 79/144/49 78/145/49
f 80/146/50 82/147/50 81/148/50
f 85/149/51 87/150/51 86/151/51
f 69/152/52 68/153/52 66/154/52 67/155/52
f 71/156/53 70/157/53 68/153/53 69/158/53
f 76/159/54 74/141/54 70/157/54 71/160/54
f 75/140/55 76/115/55 73/114/55 72/137/55
f 72/161/56 73/122/56 77/121/56 78/145/56
f 82/162/57 80/146/57 74/141/57 75/163/57
f 81/128/58 82/139/58 78/138/58 79/125/58
f 79/144/59 77/121/59 84/120/59 83/164/59
f 87/165/60 85/149/60 80/146/60 81/166/60
f 86/132/61 87/127/61 83/126/61 84/129/61
f 89/167/62 88/168/62 85/149/62 86/169/62
f 91/170/63 90/171/63 88/168/63 89/172/63
f 67/173/64 66/154/64 90/171/64 91/174/64
f 68/153/65 70/157/65 74/141/65 80/146/65 85/149/65 88/168/65 90/171/65 66/154/65
