<?xml version="1.0" standalone="no"?>
<!DOCTYPE svg PUBLIC "-//W3C//DTD SVG 20010904//EN"
 "http://www.w3.org/TR/2001/REC-SVG-20010904/DTD/svg10.dtd">
<svg version="1.0" xmlns="http://www.w3.org/2000/svg"
 width="512.000000pt" height="512.000000pt" viewBox="0 0 512.000000 512.000000"
 preserveAspectRatio="xMidYMid meet">

<g transform="translate(0.000000,512.000000) scale(0.100000,-0.100000)"
fill="#000000" stroke="none">
<path d="M3935 5110 c-151 -24 -343 -105 -468 -200 -105 -79 -197 -189 -286
-338 -45 -75 -85 -143 -89 -149 -6 -10 -29 -4 -93 23 -196 83 -370 117 -594
117 -187 0 -305 -17 -470 -70 -332 -107 -614 -316 -805 -598 -56 -83 -922
-1578 -973 -1681 -48 -96 -102 -255 -129 -378 -32 -147 -32 -436 1 -586 84
-394 282 -709 589 -940 529 -397 1231 -412 1792 -39 114 76 312 270 387 379
64 95 909 1550 980 1689 59 115 112 270 140 406 27 136 25 444 -5 581 -64 295
-197 553 -392 757 -65 68 -194 180 -258 223 -9 6 153 266 201 325 98 118 257
218 415 261 103 28 307 30 401 5 150 -41 257 -98 363 -196 117 -108 187 -221
234 -378 23 -76 27 -107 28 -223 1 -154 -18 -239 -78 -359 -19 -37 -239 -421
-489 -852 -250 -432 -466 -807 -480 -835 -36 -73 -50 -146 -44 -233 23 -332
369 -528 668 -379 102 51 151 110 288 348 154 266 156 270 137 314 -27 66
-101 87 -150 44 -14 -13 -80 -117 -147 -233 -127 -221 -159 -263 -224 -298
-52 -28 -174 -30 -222 -4 -92 50 -143 124 -151 223 -4 51 0 71 20 115 14 30
231 410 483 844 251 435 472 819 490 855 286 569 -40 1275 -664 1437 -108 28
-302 39 -406 23z m-1398 -751 c53 -6 137 -21 187 -34 94 -23 256 -82 256 -92
0 -3 -43 -81 -97 -173 l-96 -168 -71 -4 c-82 -6 -153 -37 -203 -90 -41 -43
-282 -459 -300 -518 -24 -76 -7 -172 46 -256 12 -18 7 -31 -49 -127 -34 -59
-63 -107 -65 -107 -4 0 -1009 575 -1046 598 l-27 17 104 178 c57 98 120 202
141 230 185 253 453 434 758 511 166 43 304 53 462 35z m714 -297 c447 -362
609 -993 392 -1534 -27 -68 -227 -435 -248 -457 -7 -6 -1065 611 -1065 622 0
5 25 54 56 107 l56 97 67 5 c82 6 157 38 204 86 33 35 267 429 297 502 32 76
16 189 -39 276 -12 19 -4 37 85 192 55 94 102 172 105 172 3 0 43 -31 90 -68z
m-459 -401 c57 -51 50 -75 -93 -320 -92 -158 -131 -217 -153 -228 -63 -32
-141 15 -140 85 0 29 27 84 124 250 82 142 132 218 149 227 41 22 77 18 113
-14z m-632 -1121 c591 -342 1087 -629 1102 -638 l26 -17 -312 -538 c-171 -295
-332 -565 -356 -599 -139 -194 -376 -373 -610 -461 -696 -262 -1481 104 -1729
806 -56 158 -75 273 -75 452 0 228 38 394 134 585 27 54 462 813 626 1092 3 4
30 -8 62 -26 31 -19 541 -314 1132 -656z"/>
<path d="M4968 2504 c-34 -18 -48 -43 -48 -84 0 -42 15 -67 50 -85 43 -22 76
-18 112 14 27 24 33 36 33 71 0 35 -6 47 -33 71 -36 32 -72 36 -114 13z"/>
</g>
</svg>
