# Blender 4.1.1
# www.blender.org
mtllib plane.mtl
o corpo
v -6.900000 3.968752 -1.981239
v -6.900000 -0.048687 -2.012284
v -6.900000 3.968752 1.924114
v -6.900000 -0.048687 1.980500
v 4.208390 -4.995974 -4.980174
v 4.182270 5.013469 4.990867
v 4.208389 -4.995974 4.992793
v 4.182271 4.982174 -4.995560
v 4.195330 -0.029629 -4.979643
v 4.208390 -4.982268 -0.000543
v 4.195330 -0.029629 4.964418
v 4.182270 4.983316 -0.000976
vn -0.0915 0.9958 -0.0022
vn -0.2621 0.0035 0.9650
vn -1.0000 -0.0000 -0.0000
vn -0.2597 0.0006 -0.9657
vn -0.4062 -0.9138 -0.0000
vt -0.003340 0.949456
vt 0.297646 0.107933
vt 0.688637 0.107548
vt 0.996480 0.948864
vt 0.496703 0.948977
vt 0.917372 0.000093
vt 0.916392 0.496167
vt 0.917372 0.999907
vt 0.078019 0.897126
vt 0.079257 0.495804
vt 0.471307 0.498414
vt 0.467281 0.900959
vt 0.080837 0.900959
vt 0.077727 0.498414
vt 0.859124 0.496869
vt 0.859705 0.899428
vt 0.000093 0.999907
vt 0.000388 0.497721
vt 0.000093 0.000093
vt 0.695820 0.105371
vt 0.996058 0.949447
vt 0.496842 0.950153
vt -0.003743 0.952300
vt 0.295540 0.106513
s 0
usemtl Materiale.008
f 8/1/1 1/2/1 3/3/1 6/4/1 12/5/1
f 7/6/2 11/7/2 6/8/2 3/9/2 4/10/2
f 4/11/3 3/12/3 1/13/3 2/14/3
f 2/15/4 1/16/4 8/17/4 9/18/4 5/19/4
f 2/20/5 5/21/5 10/22/5 7/23/5 4/24/5
o tail
v -7.936774 2.000000 0.500000
v -7.936774 6.000000 0.144653
v -7.936774 2.000000 -0.500000
v -7.936774 6.000000 -0.144653
v -4.936774 2.000000 0.500000
v -4.936774 6.000000 0.144653
v -4.936774 2.000000 -0.500000
v -4.936774 6.000000 -0.144653
vn -1.0000 -0.0000 -0.0000
vn -0.0000 0.0885 -0.9961
vn 1.0000 -0.0000 -0.0000
vn -0.0000 0.0885 0.9961
vn -0.0000 -1.0000 -0.0000
vn -0.0000 1.0000 -0.0000
vt 0.375000 0.000000
vt 0.625000 0.000000
vt 0.625000 0.250000
vt 0.375000 0.250000
vt 0.625000 0.500000
vt 0.375000 0.500000
vt 0.625000 0.750000
vt 0.375000 0.750000
vt 0.375000 0.249287
vt 0.625000 0.249287
vt 0.625000 0.499287
vt 0.375000 0.499287
vt 0.125000 0.500000
vt 0.125000 0.750000
vt 0.875000 0.500000
vt 0.875000 0.750000
s 0
usemtl Materiale.008
f 13/25/6 14/26/6 16/27/6 15/28/6
f 15/28/7 16/27/7 20/29/7 19/30/7
f 19/30/8 20/29/8 18/31/8 17/32/8
f 17/33/9 18/34/9 14/35/9 13/36/9
f 15/37/10 19/30/10 17/32/10 13/38/10
f 20/29/11 16/39/11 14/40/11 18/31/11
o Cubo
v -6.851060 4.786807 -2.163094
v -6.851060 4.986722 -2.163094
v -6.851060 4.786808 1.951359
v -6.851060 4.986722 1.951359
v -8.851060 4.786562 -2.105867
v -8.851060 5.282970 -2.105867
v -8.851060 4.786562 1.894133
v -8.851060 5.282970 1.894133
vn 1.0000 -0.0000 -0.0000
vn -0.0286 -0.0000 0.9996
vn -1.0000 -0.0000 -0.0000
vn -0.0286 -0.0000 -0.9996
vn 0.0001 -1.0000 -0.0000
vn 0.1465 0.9892 -0.0000
vt 0.375000 0.000000
vt 0.625000 0.000000
vt 0.625000 0.250000
vt 0.375000 0.250000
vt 0.625000 0.500000
vt 0.375000 0.500000
vt 0.625000 0.750000
vt 0.375000 0.750000
vt 0.625000 1.000000
vt 0.375000 1.000000
vt 0.125000 0.500000
vt 0.125000 0.750000
vt 0.875000 0.500000
vt 0.875000 0.750000
s 0
usemtl bianco.001
f 21/41/12 22/42/12 24/43/12 23/44/12
f 23/44/13 24/43/13 28/45/13 27/46/13
f 27/46/14 28/45/14 26/47/14 25/48/14
f 25/48/15 26/47/15 22/49/15 21/50/15
f 23/51/16 27/46/16 25/48/16 21/52/16
f 28/45/17 24/53/17 22/54/17 26/47/17
o Cubo.001
v 4.193493 -5.000000 5.000000
v 4.193493 5.000000 5.000000
v 4.193493 -5.000000 -5.000000
v 4.193493 5.000000 -5.000000
v 8.193493 -3.723553 3.723555
v 5.736586 -5.000000 5.000000
v 5.736586 5.000000 5.000000
v 8.193493 3.723557 3.723555
v 8.193493 -3.723553 -3.723555
v 5.736586 -5.000000 -5.000000
v 8.193493 3.723557 -3.723555
v 5.736586 5.000000 -5.000000
vn -1.0000 -0.0000 -0.0000
vn -0.0000 -0.0000 1.0000
vn -0.0000 1.0000 -0.0000
vn 1.0000 -0.0000 -0.0000
vn -0.0000 -0.0000 -1.0000
vn 0.4610 -0.0000 -0.8874
vn 0.4610 -0.8874 -0.0000
vn 0.4610 0.8874 -0.0000
vn 0.4610 -0.0000 0.8874
vn -0.0000 -1.0000 -0.0000
vt 0.375000 0.000000
vt 0.625000 0.000000
vt 0.625000 0.250000
vt 0.375000 0.250000
vt 0.375000 0.855406
vt 0.625000 0.855406
vt 0.625000 1.000000
vt 0.375000 1.000000
vt 0.730406 0.500000
vt 0.875000 0.500000
vt 0.875000 0.750000
vt 0.730406 0.750000
vt 0.480406 0.605406
vt 0.519594 0.605406
vt 0.519594 0.644594
vt 0.480406 0.644594
vt 0.625000 0.394594
vt 0.375000 0.394594
vt 0.269594 0.750000
vt 0.269594 0.500000
vt 0.125000 0.500000
vt 0.125000 0.750000
s 0
usemtl bianco.001
f 29/55/18 30/56/18 32/57/18 31/58/18
f 34/59/19 35/60/19 30/61/19 29/62/19
f 40/63/20 32/64/20 30/65/20 35/66/20
f 37/67/21 39/68/21 36/69/21 33/70/21
f 31/58/22 32/57/22 40/71/22 38/72/22
f 39/68/23 37/67/23 38/72/23 40/71/23
f 34/73/24 38/74/24 37/67/24 33/70/24
f 40/63/25 35/66/25 36/69/25 39/68/25
f 35/60/26 34/59/26 33/70/26 36/69/26
f 31/75/27 38/74/27 34/73/27 29/76/27
o Cilindro.002
v 8.010514 -0.000000 -0.387786
v 8.010514 0.292302 -0.274206
v 8.010514 0.413377 -0.000000
v 8.010514 -0.413377 0.000000
v 8.010514 -0.292302 -0.274206
v 9.130515 -0.000000 -0.606148
v 9.082693 -0.000000 -0.682580
v 9.130515 0.450060 -0.430960
v 9.082697 0.479553 -0.495921
v 9.130515 0.619165 -0.047305
v 9.082698 0.678190 -0.045285
v 8.058846 0.245225 0.414249
v 8.010514 0.321155 0.288917
v 9.130515 0.450060 0.336350
v 9.082132 0.421298 0.432460
v 9.082508 0.516364 0.326242
v 8.010514 0.000000 0.482269
v 8.058952 0.055096 0.524661
v 8.058952 -0.055096 0.524661
v 9.130515 0.000000 0.511538
v 9.082078 -0.057653 0.576727
v 9.082078 0.057653 0.576727
v 8.058846 -0.245224 0.414249
v 8.010514 -0.321155 0.288917
v 9.130515 -0.450060 0.336350
v 9.082508 -0.516364 0.326242
v 9.082132 -0.421298 0.432460
v 9.130515 -0.619165 -0.047305
v 9.082698 -0.678190 -0.045285
v 9.130515 -0.450060 -0.430960
v 9.082697 -0.479553 -0.495921
vn -0.2481 -0.3512 -0.9028
vn -0.1951 0.9154 0.3521
vn -1.0000 -0.0000 -0.0000
vn -0.0675 -0.4169 0.9065
vn -0.1951 -0.9154 0.3521
vn -0.2363 -0.8891 -0.3921
vn -0.2481 0.3512 -0.9028
vn -0.2363 0.8891 -0.3921
vn -0.0675 0.4169 0.9065
vn 0.6632 0.5565 0.5004
vn -0.6586 -0.0000 0.7525
vn 0.8027 -0.0000 0.5964
vn 0.6632 -0.5565 0.5004
vn 0.8303 0.2022 -0.5194
vn 0.7437 0.6118 -0.2696
vn 0.7585 0.5968 0.2617
vn -0.1542 0.7793 0.6074
vn -0.8098 0.2995 0.5044
vn 0.8566 0.1885 0.4804
vn -0.0508 -0.0000 0.9987
vn -0.8098 -0.2995 0.5044
vn 0.8566 -0.1885 0.4804
vn -0.1542 -0.7793 0.6074
vn 0.7585 -0.5968 0.2617
vn 0.7437 -0.6118 -0.2696
vn 0.8303 -0.2022 -0.5194
vn 1.0000 -0.0000 -0.0000
vt 0.125000 0.500000
vt 0.000000 0.500000
vt 0.000000 0.978651
vt 0.125000 0.978653
vt 0.750000 0.500000
vt 0.654789 0.500000
vt 0.648243 0.978600
vt 0.750000 0.978653
vt 0.750000 0.490000
vt 0.580294 0.419706
vt 0.510000 0.250000
vt 0.563543 0.120737
vt 0.750000 0.043112
vt 0.936457 0.120737
vt 0.990000 0.250000
vt 0.919706 0.419706
vt 0.477410 0.521611
vt 0.397632 0.521591
vt 0.390422 0.978394
vt 0.484618 0.978385
vt 0.345211 0.500000
vt 0.250000 0.500000
vt 0.250000 0.978653
vt 0.351757 0.978600
vt 1.000000 0.500000
vt 0.875000 0.500000
vt 0.875000 0.978653
vt 1.000000 0.978651
vt 0.602369 0.521591
vt 0.522590 0.521611
vt 0.515382 0.978385
vt 0.609578 0.978394
vt 0.406543 0.107998
vt 0.429605 0.111740
vt 0.396538 0.072425
vt 0.718290 0.023135
vt 0.781710 0.023135
vt 0.250000 0.043156
vt 0.270053 0.019028
vt 0.229947 0.019028
vt 0.093457 0.107998
vt 0.103462 0.072425
vt 0.070395 0.111740
vt 0.417591 0.420582
vt 0.406543 0.392002
vt 0.250000 0.456844
vt 0.250791 0.489673
vt 0.489029 0.252343
vt 0.465362 0.250000
vt 0.419940 0.419139
vt 0.431825 0.109553
vt 0.488590 0.246595
vt 0.891451 0.068591
vt 0.270170 0.018355
vt 0.396819 0.070814
vt 0.608549 0.068591
vt 0.103181 0.070814
vt 0.229830 0.018355
vt 0.011410 0.246595
vt 0.034638 0.250000
vt 0.068175 0.109553
vt 0.080060 0.419139
vt 0.093457 0.392002
vt 0.010971 0.252343
vt 0.249209 0.489673
vt 0.082409 0.420582
s 0
usemtl brown.001
f 45/77/28 41/78/28 47/79/28 71/80/28
f 43/81/29 53/82/29 56/83/29 51/84/29
f 41/85/30 45/86/30 44/87/30 64/88/30 57/89/30 53/90/30 43/91/30 42/92/30
f 59/93/31 63/94/31 67/95/31 61/96/31
f 64/97/32 44/98/32 69/99/32 66/100/32
f 44/98/33 45/77/33 71/80/33 69/99/33
f 41/101/34 42/102/34 49/103/34 47/104/34
f 42/102/35 43/81/35 51/84/35 49/103/35
f 52/105/36 58/106/36 62/107/36 55/108/36
f 54/109/37 56/110/37 55/111/37
f 57/89/38 59/112/38 58/113/38
f 60/114/39 62/115/39 61/116/39
f 65/117/40 67/118/40 66/119/40
f 49/120/41 48/121/41 46/122/41 47/123/41
f 51/124/42 50/125/42 48/121/42 49/126/42
f 56/127/43 54/109/43 50/125/43 51/128/43
f 55/108/44 56/83/44 53/82/44 52/105/44
f 52/129/45 53/90/45 57/89/45 58/113/45
f 62/130/46 60/114/46 54/109/46 55/131/46
f 61/96/47 62/107/47 58/106/47 59/93/47
f 59/112/48 57/89/48 64/88/48 63/132/48
f 67/133/49 65/117/49 60/114/49 61/134/49
f 66/100/50 67/95/50 63/94/50 64/97/50
f 69/135/51 68/136/51 65/117/51 66/137/51
f 71/138/52 70/139/52 68/136/52 69/140/52
f 47/141/53 46/122/53 70/139/53 71/142/53
f 48/121/54 50/125/54 54/109/54 60/114/54 65/117/54 68/136/54 70/139/54 46/122/54
o ali.002
v -4.000000 0.639095 2.732190
v -4.000000 0.084832 2.732190
v -4.000000 0.639093 14.146502
v -4.000000 0.084830 14.146502
v 4.000000 0.799999 15.000000
v 4.000000 -0.800001 15.000000
v 4.090257 0.800001 4.857619
v 4.090257 -0.799999 4.857619
vn -1.0000 -0.0000 -0.0000
vn -0.1061 -0.0000 0.9944
vn 0.2541 -0.0000 -0.9672
vn -0.1092 -0.9940 -0.0005
vn -0.0200 0.9998 -0.0001
vn 1.0000 -0.0000 0.0089
vt 0.004210 0.639329
vt 0.004103 0.361063
vt 1.003910 0.360671
vt 1.004016 0.638937
vt 0.066885 0.244760
vt 0.067960 0.145268
vt 0.566981 0.043576
vt 0.563877 0.246854
vt 0.375000 0.784679
vt 0.625000 0.784679
vt 0.625000 1.000000
vt 0.375000 1.000000
vt 0.003371 -0.008464
vt 0.468849 -0.008464
vt 0.468849 0.996481
vt 0.038051 0.996481
vt 0.457592 0.248720
vt 0.457592 0.743103
vt 0.125307 0.744728
vt 0.083989 0.238143
vt 0.998160 0.961537
vt -0.001839 0.962515
vt -0.002168 0.331355
vt 0.997830 0.330378
s 0
usemtl Materiale.008
f 72/143/55 73/144/55 75/145/55 74/146/55
f 74/147/56 75/148/56 77/149/56 76/150/56
f 78/151/57 79/152/57 73/153/57 72/154/57
f 77/155/58 75/156/58 73/157/58 79/158/58
f 74/159/59 76/160/59 78/161/59 72/162/59
f 76/163/60 77/164/60 79/165/60 78/166/60
o ali.001
v -4.000000 0.639095 -2.732190
v -4.000000 0.084832 -2.732190
v -4.000000 0.639092 -14.146502
v -4.000000 0.084829 -14.146502
v 4.000000 0.799998 -15.000000
v 4.000000 -0.800002 -15.000000
v 4.090257 0.800001 -4.857619
v 4.090257 -0.799999 -4.857619
vn -1.0000 -0.0000 -0.0000
vn -0.1061 -0.0000 -0.9944
vn 0.2541 -0.0000 0.9672
vn -0.1092 -0.9940 0.0005
vn -0.0200 0.9998 0.0001
vn 1.0000 -0.0000 -0.0089
vt 0.004210 0.639329
vt 0.004103 0.361063
vt 1.003910 0.360671
vt 1.004016 0.638937
vt 0.066885 0.244760
vt 0.067960 0.145268
vt 0.566981 0.043576
vt 0.563877 0.246854
vt 0.375000 0.784679
vt 0.625000 0.784679
vt 0.625000 1.000000
vt 0.375000 1.000000
vt 0.003371 -0.008464
vt 0.468849 -0.008464
vt 0.468849 0.996481
vt 0.038051 0.996481
vt 0.457592 0.248720
vt 0.457592 0.743103
vt 0.125307 0.744728
vt 0.083989 0.238143
vt 0.998160 0.961537
vt -0.001839 0.962515
vt -0.002168 0.331355
vt 0.997830 0.330378
s 0
usemtl Materiale.008
f 80/167/61 82/170/61 83/169/61 81/168/61
f 82/171/62 84/174/62 85/173/62 83/172/62
f 86/175/63 80/178/63 81/177/63 87/176/63
f 85/179/64 87/182/64 81/181/64 83/180/64
f 82/183/65 80/186/65 86/185/65 84/184/65
f 84/187/66 86/190/66 87/189/66 85/188/66
