# Blender 4.1.1
# www.blender.org
mtllib plane.mtl
o corpo
v -6.900000 3.968752 -1.981239
v -6.900000 -0.048687 -2.012284
v -6.900000 3.968752 1.924114
v -6.900000 -0.048687 1.980500
v 4.208390 -4.995974 -4.980174
v 4.182270 5.013469 4.990867
v 4.208389 -4.995974 4.992793
v 4.182271 4.982174 -4.995560
v 4.195330 -0.029629 -4.979643
v 4.208390 -4.982268 -0.000543
v 4.195330 -0.029629 4.964418
v 4.182270 4.983316 -0.000976
vn -0.0915 0.9958 -0.0022
vn -0.2621 0.0035 0.9650
vn -1.0000 -0.0000 -0.0000
vn -0.2597 0.0006 -0.9657
vn -0.4062 -0.9138 -0.0000
vt 0.050666 0.363583
vt 0.940108 0.363583
vt 0.940108 0.994931
vt 0.050666 0.994931
vt 0.050666 0.625000
vt 0.044808 0.369441
vt 0.500000 0.369441
vt 0.944340 0.369441
vt 0.944340 1.000000
vt 0.044808 1.000000
vt 0.375000 0.373597
vt 0.941240 0.373597
vt 0.941240 1.001845
vt 0.375000 1.001845
vt 0.046358 0.370915
vt 0.939690 0.370915
vt 0.939690 1.001474
vt 0.500000 1.001474
vt 0.046358 1.001474
vt 0.053691 0.363583
vt 0.943133 0.363583
vt 0.943133 0.625000
vt 0.943133 0.993381
vt 0.053691 0.993381
s 0
usemtl Materiale.008
f 8/1/1 1/2/1 3/3/1 6/4/1 12/5/1
f 7/6/2 11/7/2 6/8/2 3/9/2 4/10/2
f 4/11/3 3/12/3 1/13/3 2/14/3
f 2/15/4 1/16/4 8/17/4 9/18/4 5/19/4
f 2/20/5 5/21/5 10/22/5 7/23/5 4/24/5
o tail
v -7.936774 2.000000 0.500000
v -7.936774 6.000000 0.144653
v -7.936774 2.000000 -0.500000
v -7.936774 6.000000 -0.144653
v -4.936774 2.000000 0.500000
v -4.936774 6.000000 0.144653
v -4.936774 2.000000 -0.500000
v -4.936774 6.000000 -0.144653
vn -1.0000 -0.0000 -0.0000
vn -0.0000 0.0885 -0.9961
vn 1.0000 -0.0000 -0.0000
vn -0.0000 0.0885 0.9961
vn -0.0000 -1.0000 -0.0000
vn -0.0000 1.0000 -0.0000
vt 0.375000 0.000000
vt 0.625000 0.000000
vt 0.625000 0.250000
vt 0.375000 0.250000
vt 0.625000 0.500000
vt 0.375000 0.500000
vt 0.625000 0.750000
vt 0.375000 0.750000
vt 0.375000 0.249287
vt 0.625000 0.249287
vt 0.625000 0.499287
vt 0.375000 0.499287
vt 0.125000 0.500000
vt 0.125000 0.750000
vt 0.875000 0.500000
vt 0.875000 0.750000
s 0
usemtl Materiale.008
f 13/25/6 14/26/6 16/27/6 15/28/6
f 15/28/7 16/27/7 20/29/7 19/30/7
f 19/30/8 20/29/8 18/31/8 17/32/8
f 17/33/9 18/34/9 14/35/9 13/36/9
f 15/37/10 19/30/10 17/32/10 13/38/10
f 20/29/11 16/39/11 14/40/11 18/31/11
o ali
v -4.000000 0.639095 -14.146502
v -4.000000 0.084832 -14.146502
v -4.000000 0.639093 14.146502
v -4.000000 0.084830 14.146502
v 4.000000 0.799999 15.000000
v 4.000000 -0.800001 15.000000
v 4.000000 0.800001 -10.838463
v 4.090257 0.800001 -15.000000
v 4.090257 -0.799999 -15.000000
v 4.000000 -0.799999 -10.838463
vn -1.0000 -0.0000 -0.0000
vn -0.1061 -0.0000 0.9944
vn -0.1049 -0.0000 -0.9945
vn -0.1099 -0.9939 -0.0002
vn -0.0201 0.9998 -0.0000
vn 1.0000 -0.0000 0.0030
vt 0.375000 0.000000
vt 0.625000 0.000000
vt 0.625000 0.250000
vt 0.375000 0.250000
vt 0.012254 0.381767
vt 0.142889 0.381767
vt 0.142889 0.831742
vt 0.012254 0.831742
vt 0.375000 0.784679
vt 0.625000 0.784679
vt 0.625000 1.000000
vt 0.375000 1.000000
vt 0.003371 -0.008464
vt 0.468849 -0.008464
vt 0.468849 0.996481
vt 0.038051 0.996481
vt 0.003371 0.961802
vt 0.004085 -0.006914
vt 0.466462 -0.006914
vt 0.466462 0.969553
vt 0.431782 1.004232
vt 0.004085 1.004232
vt 0.375000 0.582160
vt 0.625000 0.582160
vt 0.997047 0.582004
vt 0.998597 0.651363
vt 0.005478 0.652338
vt 0.002953 0.582004
s 0
usemtl Materiale.008
f 21/41/12 22/42/12 24/43/12 23/44/12
f 23/45/13 24/46/13 26/47/13 25/48/13
f 28/49/14 29/50/14 22/51/14 21/52/14
f 26/53/15 24/54/15 22/55/15 29/56/15 30/57/15
f 23/58/16 25/59/16 27/60/16 28/61/16 21/62/16
f 25/63/17 26/64/17 30/65/17 29/66/17 28/67/17 27/68/17
o Cubo
v -6.851060 4.786807 -2.163094
v -6.851060 4.986722 -2.163094
v -6.851060 4.786808 1.951359
v -6.851060 4.986722 1.951359
v -8.851060 4.786562 -2.105867
v -8.851060 5.282970 -2.105867
v -8.851060 4.786562 1.894133
v -8.851060 5.282970 1.894133
vn 1.0000 -0.0000 -0.0000
vn -0.0286 -0.0000 0.9996
vn -1.0000 -0.0000 -0.0000
vn -0.0286 -0.0000 -0.9996
vn 0.0001 -1.0000 -0.0000
vn 0.1465 0.9892 -0.0000
vt 0.375000 0.000000
vt 0.625000 0.000000
vt 0.625000 0.250000
vt 0.375000 0.250000
vt 0.625000 0.500000
vt 0.375000 0.500000
vt 0.625000 0.750000
vt 0.375000 0.750000
vt 0.625000 1.000000
vt 0.375000 1.000000
vt 0.125000 0.500000
vt 0.125000 0.750000
vt 0.875000 0.500000
vt 0.875000 0.750000
s 0
usemtl bianco.001
f 31/69/18 32/70/18 34/71/18 33/72/18
f 33/72/19 34/71/19 38/73/19 37/74/19
f 37/74/20 38/73/20 36/75/20 35/76/20
f 35/76/21 36/75/21 32/77/21 31/78/21
f 33/79/22 37/74/22 35/76/22 31/80/22
f 38/73/23 34/81/23 32/82/23 36/75/23
o Cubo.001
v 4.193493 -5.000000 5.000000
v 4.193493 5.000000 5.000000
v 4.193493 -5.000000 -5.000000
v 4.193493 5.000000 -5.000000
v 8.193493 -3.723553 3.723555
v 5.736586 -5.000000 5.000000
v 5.736586 5.000000 5.000000
v 8.193493 3.723557 3.723555
v 8.193493 -3.723553 -3.723555
v 5.736586 -5.000000 -5.000000
v 8.193493 3.723557 -3.723555
v 5.736586 5.000000 -5.000000
vn -1.0000 -0.0000 -0.0000
vn -0.0000 -0.0000 1.0000
vn -0.0000 1.0000 -0.0000
vn 1.0000 -0.0000 -0.0000
vn -0.0000 -0.0000 -1.0000
vn 0.4610 -0.0000 -0.8874
vn 0.4610 -0.8874 -0.0000
vn 0.4610 0.8874 -0.0000
vn 0.4610 -0.0000 0.8874
vn -0.0000 -1.0000 -0.0000
vt 0.375000 0.000000
vt 0.625000 0.000000
vt 0.625000 0.250000
vt 0.375000 0.250000
vt 0.375000 0.855406
vt 0.625000 0.855406
vt 0.625000 1.000000
vt 0.375000 1.000000
vt 0.730406 0.500000
vt 0.875000 0.500000
vt 0.875000 0.750000
vt 0.730406 0.750000
vt 0.480406 0.605406
vt 0.519594 0.605406
vt 0.519594 0.644594
vt 0.480406 0.644594
vt 0.625000 0.394594
vt 0.375000 0.394594
vt 0.269594 0.750000
vt 0.269594 0.500000
vt 0.125000 0.500000
vt 0.125000 0.750000
s 0
usemtl bianco.001
f 39/83/24 40/84/24 42/85/24 41/86/24
f 44/87/25 45/88/25 40/89/25 39/90/25
f 50/91/26 42/92/26 40/93/26 45/94/26
f 47/95/27 49/96/27 46/97/27 43/98/27
f 41/86/28 42/85/28 50/99/28 48/100/28
f 49/96/29 47/95/29 48/100/29 50/99/29
f 44/101/30 48/102/30 47/95/30 43/98/30
f 50/91/31 45/94/31 46/97/31 49/96/31
f 45/88/32 44/87/32 43/98/32 46/97/32
f 41/103/33 48/102/33 44/101/33 39/104/33
o Cilindro.002
v 8.010514 -0.000000 -0.387786
v 8.010514 0.292302 -0.274206
v 8.010514 0.413377 -0.000000
v 8.010514 -0.413377 0.000000
v 8.010514 -0.292302 -0.274206
v 9.130515 -0.000000 -0.606148
v 9.082693 -0.000000 -0.682580
v 9.130515 0.450060 -0.430960
v 9.082697 0.479553 -0.495921
v 9.130515 0.619165 -0.047305
v 9.082698 0.678190 -0.045285
v 8.058846 0.245225 0.414249
v 8.010514 0.321155 0.288917
v 9.130515 0.450060 0.336350
v 9.082132 0.421298 0.432460
v 9.082508 0.516364 0.326242
v 8.010514 0.000000 0.482269
v 8.058952 0.055096 0.524661
v 8.058952 -0.055096 0.524661
v 9.130515 0.000000 0.511538
v 9.082078 -0.057653 0.576727
v 9.082078 0.057653 0.576727
v 8.058846 -0.245224 0.414249
v 8.010514 -0.321155 0.288917
v 9.130515 -0.450060 0.336350
v 9.082508 -0.516364 0.326242
v 9.082132 -0.421298 0.432460
v 9.130515 -0.619165 -0.047305
v 9.082698 -0.678190 -0.045285
v 9.130515 -0.450060 -0.430960
v 9.082697 -0.479553 -0.495921
vn -0.2481 -0.3512 -0.9028
vn -0.1951 0.9154 0.3521
vn -1.0000 -0.0000 -0.0000
vn -0.0675 -0.4169 0.9065
vn -0.1951 -0.9154 0.3521
vn -0.2363 -0.8891 -0.3921
vn -0.2481 0.3512 -0.9028
vn -0.2363 0.8891 -0.3921
vn -0.0675 0.4169 0.9065
vn 0.6632 0.5565 0.5004
vn -0.6586 -0.0000 0.7525
vn 0.8027 -0.0000 0.5964
vn 0.6632 -0.5565 0.5004
vn 0.8303 0.2022 -0.5194
vn 0.7437 0.6118 -0.2696
vn 0.7585 0.5968 0.2617
vn -0.1542 0.7793 0.6074
vn -0.8098 0.2995 0.5044
vn 0.8566 0.1885 0.4804
vn -0.0508 -0.0000 0.9987
vn -0.8098 -0.2995 0.5044
vn 0.8566 -0.1885 0.4804
vn -0.1542 -0.7793 0.6074
vn 0.7585 -0.5968 0.2617
vn 0.7437 -0.6118 -0.2696
vn 0.8303 -0.2022 -0.5194
vn 1.0000 -0.0000 -0.0000
vt 0.125000 0.500000
vt 0.000000 0.500000
vt 0.000000 0.978651
vt 0.125000 0.978653
vt 0.750000 0.500000
vt 0.654789 0.500000
vt 0.648243 0.978600
vt 0.750000 0.978653
vt 0.750000 0.490000
vt 0.580294 0.419706
vt 0.510000 0.250000
vt 0.563543 0.120737
vt 0.750000 0.043112
vt 0.936457 0.120737
vt 0.990000 0.250000
vt 0.919706 0.419706
vt 0.477410 0.521611
vt 0.397632 0.521591
vt 0.390422 0.978394
vt 0.484618 0.978385
vt 0.345211 0.500000
vt 0.250000 0.500000
vt 0.250000 0.978653
vt 0.351757 0.978600
vt 1.000000 0.500000
vt 0.875000 0.500000
vt 0.875000 0.978653
vt 1.000000 0.978651
vt 0.602369 0.521591
vt 0.522590 0.521611
vt 0.515382 0.978385
vt 0.609578 0.978394
vt 0.406543 0.107998
vt 0.429605 0.111740
vt 0.396538 0.072425
vt 0.718290 0.023135
vt 0.781710 0.023135
vt 0.250000 0.043156
vt 0.270053 0.019028
vt 0.229947 0.019028
vt 0.093457 0.107998
vt 0.103462 0.072425
vt 0.070395 0.111740
vt 0.417591 0.420582
vt 0.406543 0.392002
vt 0.250000 0.456844
vt 0.250791 0.489673
vt 0.489029 0.252343
vt 0.465362 0.250000
vt 0.419940 0.419139
vt 0.431825 0.109553
vt 0.488590 0.246595
vt 0.891451 0.068591
vt 0.270170 0.018355
vt 0.396819 0.070814
vt 0.608549 0.068591
vt 0.103181 0.070814
vt 0.229830 0.018355
vt 0.011410 0.246595
vt 0.034638 0.250000
vt 0.068175 0.109553
vt 0.080060 0.419139
vt 0.093457 0.392002
vt 0.010971 0.252343
vt 0.249209 0.489673
vt 0.082409 0.420582
s 0
usemtl brown.001
f 55/105/34 51/106/34 57/107/34 81/108/34
f 53/109/35 63/110/35 66/111/35 61/112/35
f 51/113/36 55/114/36 54/115/36 74/116/36 67/117/36 63/118/36 53/119/36 52/120/36
f 69/121/37 73/122/37 77/123/37 71/124/37
f 74/125/38 54/126/38 79/127/38 76/128/38
f 54/126/39 55/105/39 81/108/39 79/127/39
f 51/129/40 52/130/40 59/131/40 57/132/40
f 52/130/41 53/109/41 61/112/41 59/131/41
f 62/133/42 68/134/42 72/135/42 65/136/42
f 64/137/43 66/138/43 65/139/43
f 67/117/44 69/140/44 68/141/44
f 70/142/45 72/143/45 71/144/45
f 75/145/46 77/146/46 76/147/46
f 59/148/47 58/149/47 56/150/47 57/151/47
f 61/152/48 60/153/48 58/149/48 59/154/48
f 66/155/49 64/137/49 60/153/49 61/156/49
f 65/136/50 66/111/50 63/110/50 62/133/50
f 62/157/51 63/118/51 67/117/51 68/141/51
f 72/158/52 70/142/52 64/137/52 65/159/52
f 71/124/53 72/135/53 68/134/53 69/121/53
f 69/140/54 67/117/54 74/116/54 73/160/54
f 77/161/55 75/145/55 70/142/55 71/162/55
f 76/128/56 77/123/56 73/122/56 74/125/56
f 79/163/57 78/164/57 75/145/57 76/165/57
f 81/166/58 80/167/58 78/164/58 79/168/58
f 57/169/59 56/150/59 80/167/59 81/170/59
f 58/149/60 60/153/60 64/137/60 70/142/60 75/145/60 78/164/60 80/167/60 56/150/60
